<?xml version="1.0" encoding="UTF-8"?><svg xmlns="http://www.w3.org/2000/svg" viewBox="0 0 63.82 13.82"><defs><style>.d{fill:#f9a51a;}.e{fill:#fcb94e;}.f{fill:#f9a61a;}.g{fill:#f7bb56;}.h{fill:#6c2a7f;}.i{fill:#fbb958;}.j{fill:#dec4e5;}.k{fill:#fcb955;}.l{fill:#faeac9;}.m{fill:#fee7bf;}.n{fill:#6d2b7f;}.o{fill:#f9a61c;}.p{fill:#fee8c7;}.q{fill:#fee7bb;}.r{fill:#6d2b80;}.s{fill:#fbbb5a;}.t{fill:#f9a61b;}.u{fill:#fabb5e;}.v{fill:#dfc6e5;}.w{fill:#b195b9;}.x{fill:#b494bd;}.y{fill:#6d2a7f;}.a`{fill:#8e6398;}.aa{fill:#fcd28d;}.ab{fill:#fefefe;}</style></defs><g id="a"/><g id="b"><g id="c"><g><path class="t" d="M11.79,6.47c.48-.12,.72-.47,.67-1.01-.03-.36-.42-.71-.84-.72-1.3,0-2.59,0-3.89,0-1.11,0-2.06-.78-2.31-1.86C5.09,1.49,6.18-.01,7.75,0c1.13,0,2.27,0,3.4,0h.22V1.51c-.07,0-.14,0-.22,0-1.12,0-2.24,0-3.36,0-.23,0-.44,.05-.6,.22-.22,.22-.28,.49-.16,.78,.12,.29,.34,.45,.65,.46,.53,.01,1.06,0,1.6,0,.74,0,1.48,0,2.22,0h.04c1.02,.02,1.82,.46,2.28,1.37,.71,1.4,.1,3.06-1.51,3.59-.24,.08-.51,.09-.77,.13H2.81v-.02s0-.02-.01-.03c0-.14-.02-.27-.02-.41,0-1.96,0-3.91,0-5.87,0-.08,0-.16,0-.26h-.26c-.76,0-1.53,0-2.29,0-.07,0-.14-.02-.21-.03V.02C.08,.01,.12,0,.16,0c1.33,0,2.67,0,4,0,.02,0,.05,0,.07,0l.03,.07c0,2.06,0,4.12,0,6.18,0,.07,0,.15,0,.23,.07,0,.13,.01,.18,.01,2.35,0,4.71,0,7.06,0,.08,0,.16-.01,.24-.02h.04Z"/><path class="n" d="M2.81,8.05c.51,0,1.01,0,1.52,0v.03c.33,.99,1.04,1.5,2.07,1.5,.89,0,1.79,0,2.68,.01h.06c1.21,0,2.42,.04,3.62,0,1.46-.05,2.79-1.31,2.93-2.77,.09-.88,.12-1.77-.03-2.64-.24-1.32-1.39-2.38-2.71-2.56-.12-.02-.25,0-.39,0V0c.63-.02,1.24,.1,1.8,.36,1.86,.86,2.83,2.31,2.88,4.36,.01,.61,0,1.23,0,1.84,0,2.29-1.66,4.22-3.9,4.6-.15,.02-.29,.04-.44,.04-2.23,0-4.46,0-6.69,0-1.67,0-3.21-1.37-3.4-3.03,0-.04,0-.09,0-.13Z"/><path class="t" d="M24.15,4.87c.83,.1,1.49,.48,1.72,1.32,.37,1.35-.26,2.59-1.82,2.65-1.5,.05-3.01,.01-4.51,.01-.02,0-.04,0-.06,0l-.02-.04v-1.31l.13-.02h4.55c.32-.1,.45-.28,.45-.6,0-.31-.14-.49-.44-.58l-.05-.02c-.91,0-1.83,0-2.74,0-.44,0-.84-.12-1.19-.38-.64-.48-.85-1.15-.74-1.91,.14-1.02,.85-1.63,1.93-1.69h.04c1.3,0,2.6,0,3.91,0l.04,.02h.04v1.36h-.04c-1.33,0-2.65,0-3.98,0-.32,0-.53,.19-.56,.49-.04,.4,.11,.63,.49,.71h2.86Z"/><path class="y" d="M42.67,8.85c-.46-.05-.69-.29-.69-.75,0-1.7,0-3.41,0-5.11,0-.38,.22-.64,.57-.7l.16-.02h3.04l.19,.03c1.16-.03,2.51,.91,2.59,2.54,.02,.47,.02,.94,0,1.41-.06,1.49-1.22,2.6-2.77,2.6-1,0-1.99,0-2.99,0h-.11Zm.72-5.19l-.02,.15v3.6l.02,.04c.86,0,1.71,.02,2.57,0,.63-.01,1.14-.52,1.18-1.14,.03-.43,.02-.86,.02-1.29v-.05c-.1-.79-.49-1.22-1.2-1.29-.03,0-.06-.02-.09-.02-.83,0-1.65,0-2.48,0Z"/><path class="f" d="M33.12,2.3v1.31l-.03,.04c-.83,0-1.65,0-2.48,0-.66,0-1.33,0-1.99,0l-.1,.03c0,.6,0,1.2,0,1.8,0,.51,0,1.03,0,1.54,0,.17,.01,.34,.22,.41h.04c1.41,0,2.81,0,4.22,0,.03,0,.06,0,.09,0l.03,.06v1.16l-.03,.15c-.68,0-1.35,0-2.03,0-.77,0-1.54,0-2.31,0-.68-.01-1.3-.45-1.52-1.1-.07-.21-.09-.45-.09-.68,0-1.38,0-2.77,0-4.15v-.05c.08-.36,.32-.59,.68-.59,1.76,0,3.51,0,5.27,0l.03,.03Z"/><path class="h" d="M51.54,7.46h4.17l.15,.03c0,.42,0,.84,0,1.26,0,.03-.02,.07-.04,.1h-4.32c-.87-.06-1.64-.68-1.63-1.73,0-1.39,0-2.78,0-4.17v-.05c.05-.34,.24-.55,.56-.6l.12-.02h5.15l.15,.03v1.35h-.18s-.06,0-.09,0c-1.39,0-2.78,0-4.18,0-.04,0-.09,.01-.13,.02,0,.04-.02,.08-.02,.13,0,1.09,0,2.18,0,3.27,0,.18,.03,.34,.24,.38h.04Z"/><path class="t" d="M40.7,2.29c0,.06,.03,.12,.03,.18,0,.7,0,1.4,0,2.1,0,1.13-.76,2-1.87,2.16-.23,.03-.47,.04-.73,.06v2.04h-1.35l-.03-.15v-1.92c-.65,.04-1.23-.09-1.74-.47-.51-.39-.79-.91-.83-1.55v-.05c0-.8,0-1.6,0-2.41h.04l.12-.02h1.2c0,.07,0,.14,0,.21,0,.65,0,1.3,0,1.95,0,.08,0,.16,.01,.24v.04c.1,.42,.37,.65,.84,.66,.68,.01,1.36,0,2.05,0,.14,0,.28-.04,.42-.09,.28-.09,.43-.29,.47-.57v-.08c.01-.78,.02-1.56,.03-2.33h.04l.04-.02h1.25Z"/><path class="r" d="M56.58,2.27h1.31l.09,.02c.35,.71,.7,1.41,1.04,2.12,.37,.75,.73,1.49,1.11,2.27l2.16-4.38,.04-.03h1.46l.03,.03c-.61,1.25-1.22,2.49-1.82,3.74-.38,.77-.76,1.55-1.14,2.32-.05,.11-.1,.23-.19,.32-.36,.4-.91,.34-1.16-.14-.32-.62-.62-1.24-.92-1.87-.6-1.22-1.2-2.44-1.8-3.67-.11-.23-.22-.47-.33-.71l.11-.03Z"/><path class="d" d="M28.78,4.87c.58,0,1.16,0,1.74,0,.67,0,1.34,0,2.01,0l.07,.03c0,.42,0,.84,0,1.26,0,.03-.02,.07-.03,.1h-.04c-1.18,0-2.36,0-3.54,0-.07,0-.15,0-.24,0v-1.28l.03-.1Z"/><path class="h" d="M51.54,4.87h3.75l.04,.03h0v1.35h-.2c-1.15,0-2.29,0-3.44,0-.07,0-.14,0-.21,0l-.02-.04v-1.19l.02-.12,.03-.03Z"/><path class="o" d="M5.96,11.58c.7-.06,1.15,.6,1.14,1.11-.02,.64-.5,1.13-1.13,1.13-.62,0-1.13-.51-1.13-1.14,0-.61,.54-1.17,1.13-1.1Z"/><path class="o" d="M14.27,12.69c.1,.54-.45,1.13-1.11,1.13-.62,0-1.11-.5-1.11-1.13,0-.69,.47-1.1,1.24-1.11,.53,0,1.09,.56,.98,1.11Z"/><path class="j" d="M51.28,3.67s.09-.02,.13-.02c1.39,0,2.78,0,4.18,0,.03,0,.06,0,.09,0-.05,0-.1,.03-.14,.03-1.38,0-2.75,0-4.13,0-.04,0-.09-.01-.13-.02Z"/><path class="a`" d="M45.95,2.3l-.19-.03,.19,.03Z"/><path class="e" d="M36.75,8.69l.03,.15-.03-.15Z"/><path class="s" d="M33.09,8.84l.03-.15-.03,.15Z"/><path class="a`" d="M55.86,7.49l-.15-.03,.15,.03Z"/><path class="a`" d="M42.71,2.27l-.16,.02,.16-.02Z"/><path class="a`" d="M55.86,2.3l-.15-.03,.15,.03Z"/><path class="x" d="M51.51,4.9l-.02,.12,.02-.15s0,.02,0,.03Z"/><path class="v" d="M55.35,5.01v0Z"/><path class="a`" d="M50.57,2.27l-.12,.02,.12-.02Z"/><path class="a`" d="M56.58,2.27l-.11,.03,.11-.03Z"/><path class="u" d="M19.6,7.46l-.12,.02,.12-.02Z"/><path class="m" d="M28.52,3.7l.1-.03-.1,.03Z"/><path class="p" d="M38.05,8.85h.07l-.02,.04-.05-.04Z"/><path class="v" d="M42.67,8.85h0Z"/><path class="k" d="M34.33,2.27l-.12,.02v-.03h.12Z"/><path class="g" d="M28.78,4.87l-.03,.1,.03-.1Z"/><path class="e" d="M4.26,.08l-.03-.07,.03,.07Z"/><path class="g" d="M32.6,4.9l-.07-.03,.07,.03Z"/><path class="a`" d="M57.98,2.29l-.09-.02,.09,.02Z"/><path class="aa" d="M39.34,4.63v0Z"/><path class="s" d="M33.12,7.52l-.03-.06,.03,.06Z"/><path class="i" d="M21.41,2.27h0Z"/><path class="i" d="M25.36,2.29l-.04-.02h.04v.02Z"/><path class="aa" d="M25.36,2.29v-.03l.04,.03h-.04Z"/><path class="k" d="M33.12,2.3l-.03-.03,.03,.03Z"/><path class="aa" d="M39.4,2.3h-.04l.04-.03s0,.02,0,.03Z"/><path class="i" d="M39.4,2.3s0-.02,0-.03h.04l-.04,.03Z"/><path class="i" d="M40.7,2.29h0Z"/><path class="a`" d="M62.33,2.27l-.04,.03,.04-.03Z"/><path class="a`" d="M63.72,2.27h0Z"/><path class="a`" d="M63.82,2.3l-.03-.03,.03,.03Z"/><path class="a`" d="M55.34,4.89l-.04-.03,.04,.03Z"/><path class="g" d="M24.15,4.87h0Z"/><path class="x" d="M51.49,6.2l.02,.04-.02-.04Z"/><path class="q" d="M24.11,6.26l.05,.02-.05-.02Z"/><path class="q" d="M32.53,6.26h0Z"/><path class="j" d="M55.15,6.26h0Z"/><path class="l" d="M11.79,6.47h0Z"/><path class="aa" d="M34.22,2.27v.03h-.04l.04-.03Z"/><path class="u" d="M24.15,7.45h0Z"/><path class="s" d="M28.77,7.46h0Z"/><path class="l" d="M35.57,4.71v0Z"/><path class="q" d="M.01,1.4v.04s0-.02-.01-.03H.01Z"/><path class="a`" d="M51.54,7.46h0Z"/><path class="v" d="M55.34,6.25v0Z"/><path class="m" d="M25.35,3.66h0Z"/><path class="e" d="M2.79,8.01s.01,.02,0,.03l-.02-.02h0Z"/><path class="q" d="M4.34,8.08v-.03h.05l-.05,.03Z"/><path class="q" d="M4.5,8.06h0Z"/><path class="q" d="M11.48,8.06h0Z"/><path class="k" d="M33.09,3.65l.03-.04-.03,.04Z"/><path class="g" d="M21.33,4.86h0Z"/><path class="aa" d="M19.47,8.8l.02,.04-.02-.04Z"/><path class="a`" d="M51.51,4.9s0-.02,0-.03h.04l-.03,.03Z"/><path class="aa" d="M34.17,4.7v0Z"/><path class="v" d="M51.5,8.84h0Z"/><path class="v" d="M55.67,8.85h0Z"/><path class="p" d="M11.52,2.97h0Z"/><path class="v" d="M55.79,8.85h0Z"/><path class="a`" d="M9.14,9.6h0Z"/><path class="x" d="M49.88,2.9v0Z"/><path class="aa" d="M27.15,2.86v0Z"/><path class="ab" d="M45.96,3.68c.71,.07,1.11,.49,1.2,1.29v.05c0,.43,.01,.86-.02,1.29-.05,.63-.56,1.13-1.18,1.14-.86,.02-1.71,0-2.57,0l-.02-.04c0-1.2,0-2.4,0-3.6l.02-.11c.49,0,.98,0,1.46,0,.37,0,.74,0,1.1-.01Z"/><path class="j" d="M45.96,3.68c-.37,0-.74,.01-1.1,.01-.49,0-.98,0-1.46,0,0-.01,0-.02,0-.03,.83,0,1.65,0,2.48,0,.03,0,.06,.01,.09,.02Z"/><path class="w" d="M43.39,3.66s0,.02,0,.03l-.02,.12,.02-.15Z"/><path class="x" d="M47.17,5.01v0Z"/><path class="w" d="M43.37,7.4l.02,.04-.02-.04Z"/></g></g></g></svg>