<?xml version="1.0" standalone="no"?>
<!DOCTYPE svg PUBLIC "-//W3C//DTD SVG 20010904//EN"
 "http://www.w3.org/TR/2001/REC-SVG-20010904/DTD/svg10.dtd">
<svg version="1.0" xmlns="http://www.w3.org/2000/svg"
 width="450.000000pt" height="450.000000pt" viewBox="0 0 450.000000 450.000000"
 preserveAspectRatio="xMidYMid meet">
<metadata>
Created by potrace 1.10, written by Peter Selinger 2001-2011
</metadata>
<g transform="translate(0.000000,450.000000) scale(0.050000,-0.050000)"
fill="#000000" stroke="none">
<path d="M520 5330 l0 -90 170 0 170 0 0 -413 c0 -535 34 -639 247 -753 125
-67 1071 -68 1215 -2 241 112 338 295 338 639 0 429 -166 668 -493 704 l-87
10 0 -100 0 -100 77 -12 c424 -68 447 -855 29 -972 -42 -11 -265 -21 -496 -21
-469 0 -523 12 -600 134 -30 47 -57 65 -110 70 -56 6 -63 11 -34 25 22 10 67
7 110 -8 149 -48 1001 -20 1079 36 198 141 180 430 -34 538 -81 41 -118 45
-381 45 -299 0 -340 10 -340 81 0 80 61 99 317 99 l243 0 0 90 0 90 -275 0
c-351 0 -484 -80 -484 -290 0 -216 130 -290 514 -290 326 0 385 -18 385 -117
0 -93 -40 -101 -550 -104 l-480 -3 0 402 0 402 -265 0 -265 0 0 -90z"/>
<path d="M3055 5109 c-132 -72 -155 -266 -47 -384 l69 -75 236 -6 c256 -8 307
-29 266 -107 -19 -34 -49 -37 -330 -37 l-309 0 0 -91 0 -92 340 7 339 6 63 63
c208 208 43 427 -323 427 -163 0 -220 7 -238 29 -28 33 -10 110 25 113 13 1
140 3 283 5 l258 3 5 85 4 85 -293 -1 c-220 0 -307 -8 -348 -30z"/>
<path d="M3924 5116 c-17 -17 -24 -121 -24 -340 l0 -315 58 -66 59 -65 321 -6
322 -7 0 92 0 91 -288 0 -287 0 -12 125 c-6 69 -8 174 -4 234 l8 110 285 0
285 1 5 85 4 85 -354 0 c-249 0 -361 -7 -378 -24z"/>
<path d="M4780 4965 c0 -254 90 -385 265 -385 54 0 55 -1 55 -130 l0 -130 90
0 90 0 0 130 c0 128 1 130 55 130 167 0 265 143 265 385 l0 175 -90 0 -90 0 0
-166 c0 -211 -3 -214 -232 -214 -231 0 -239 7 -231 222 l6 158 -92 0 -91 0 0
-175z"/>
<path d="M5784 5116 c-34 -34 -34 -738 0 -772 31 -31 490 -33 570 -3 298 113
306 646 12 771 -84 36 -547 39 -582 4z m576 -210 c57 -74 57 -279 -1 -353 -40
-51 -50 -53 -240 -53 l-199 0 0 227 c0 271 -24 244 208 237 178 -6 194 -10
232 -58z"/>
<path d="M6764 5116 c-17 -17 -24 -121 -24 -342 l0 -318 68 -68 68 -68 307 0
307 0 -7 89 -7 90 -283 5 -283 6 0 228 0 228 285 -4 285 -5 0 92 0 91 -346 0
c-242 0 -353 -7 -370 -24z"/>
<path d="M7563 5125 c110 -248 400 -802 424 -811 18 -7 48 -7 65 0 24 9 317
569 425 811 3 8 -38 15 -92 15 l-98 0 -129 -269 c-70 -148 -132 -270 -138
-270 -5 0 -68 121 -138 269 l-128 270 -99 0 c-54 0 -95 -7 -92 -15z"/>
<path d="M4104 4735 l6 -85 235 -6 235 -5 0 90 0 91 -241 0 -241 0 6 -85z"/>
<path d="M6940 4730 l0 -90 240 0 240 0 0 90 0 90 -240 0 -240 0 0 -90z"/>
<path d="M1173 3939 c-67 -53 -70 -136 -7 -196 90 -84 234 -25 234 96 0 63
-78 141 -140 141 -19 0 -58 -19 -87 -41z"/>
<path d="M2073 3939 c-67 -53 -70 -136 -7 -196 60 -56 136 -55 191 3 123 132
-42 305 -184 193z"/>
</g>
</svg>
